<svg width="8" height="8" fill="none" xmlns="http://www.w3.org/2000/svg"><path d="M3 3v-.933c0-.374 0-.56.073-.703a.666.666 0 0 1 .29-.291C3.508 1 3.694 1 4.068 1h1.866c.374 0 .56 0 .703.073a.667.667 0 0 1 .291.29c.073.144.073.33.073.704v1.866c0 .374 0 .56-.073.703a.667.667 0 0 1-.291.291C6.493 5 6.307 5 5.934 5H5M3 3h-.933c-.374 0-.56 0-.703.073a.666.666 0 0 0-.291.29C1 3.508 1 3.694 1 4.068v1.866c0 .374 0 .56.073.703a.667.667 0 0 0 .29.291c.143.073.33.073.703.073h1.869c.372 0 .558 0 .701-.073a.667.667 0 0 0 .291-.291C5 6.493 5 6.307 5 5.934V5M3 3h.933c.374 0 .56 0 .703.073a.667.667 0 0 1 .291.29c.073.143.073.33.073.703V5" stroke="#5CCD9E" stroke-linecap="round" stroke-linejoin="round"/></svg>