<svg width="28" height="28" viewBox="0 0 28 28" fill="none" xmlns="http://www.w3.org/2000/svg">
<path d="M14 6C14 6 20.8795 6.00043 22.5947 6.46289C23.541 6.71788 24.2875 7.46745 24.54 8.41992C24.9999 10.1469 25 13.7479 25 13.75C25 13.75 25 17.3538 24.54 19.0801C24.2875 20.0325 23.541 20.7821 22.5947 21.0371C20.8795 21.4996 14 21.5 14 21.5C13.9965 21.5 7.12135 21.4995 5.40527 21.0371C4.45904 20.7821 3.71248 20.0325 3.45996 19.0801C2.99996 17.3526 3 13.75 3 13.75C3 13.7479 3.0001 10.1469 3.45996 8.41992C3.71248 7.46745 4.45904 6.71788 5.40527 6.46289C7.1201 6.00055 13.9965 6 14 6ZM11.75 17.0215L17.5 13.75L11.75 10.4785V17.0215Z" fill="white"/>
</svg>
