<svg version="1.1" id="Layer_1" xmlns="http://www.w3.org/2000/svg" x="0" y="0" viewBox="0 0 22.7 22.7" style="enable-background:new 0 0 22.7 22.7" xml:space="preserve"><style>.st0{fill:#0c96bb}</style><g id="Info_2_x2C__About_2"><path class="st0" d="M11.3 3.3c-4.4 0-8 3.6-8 8s3.6 8 8 8 8-3.6 8-8-3.5-8-8-8zm0 14c-3.3 0-6-2.7-6-6s2.7-6 6-6 6 2.7 6 6-2.7 6-6 6z"/><path class="st0" d="M11.8 7.3h-1c-.3 0-.5.2-.5.5v1c0 .3.2.5.5.5h1c.3 0 .5-.2.5-.5v-1c0-.2-.2-.5-.5-.5zM11.8 10.3h-1c-.3 0-.5.2-.5.5v4c0 .3.2.5.5.5h1c.3 0 .5-.2.5-.5v-4c0-.2-.2-.5-.5-.5z"/></g></svg>