<svg width="109" height="21" viewBox="0 0 109 21" fill="none" xmlns="http://www.w3.org/2000/svg">
<path d="M1.5625 16V1.79099H6.81641C7.65625 1.79099 8.38867 1.90818 9.0332 2.14255C9.67773 2.37693 10.1953 2.70896 10.5859 3.13865C10.9766 3.56834 11.2695 4.06638 11.4648 4.63279C11.6602 5.1992 11.7578 5.83396 11.7578 6.52732C11.7578 7.2988 11.6309 7.97263 11.3867 8.55857C11.1328 9.14451 10.7812 9.63279 10.3223 10.0039C9.86328 10.3847 9.31641 10.6679 8.68164 10.8535C8.04688 11.0488 7.33398 11.1367 6.55273 11.1367H4.33594V16H1.5625ZM4.33594 8.64646H6.20117C7.06055 8.64646 7.71484 8.45115 8.16406 8.06052C8.61328 7.6699 8.84766 7.14255 8.84766 6.46873C8.84766 5.80466 8.62305 5.26755 8.18359 4.87693C7.74414 4.4863 7.11914 4.29099 6.31836 4.29099H4.33594V8.64646Z" fill="#0B0B0B"/>
<path d="M24.9609 16H21.6309L18.4473 11.1367H16.8164V16H14.043V1.79099H19.4141C20.2441 1.79099 20.9766 1.90818 21.6211 2.14255C22.2656 2.37693 22.7832 2.70896 23.1738 3.13865C23.5645 3.56834 23.8672 4.06638 24.0625 4.63279C24.2578 5.1992 24.3652 5.83396 24.3652 6.52732C24.3652 7.26951 24.2383 7.93357 24.0039 8.50974C23.7695 9.08591 23.4375 9.56443 23.0078 9.93552C22.5781 10.3164 22.0605 10.6094 21.4551 10.8047V10.8437L24.9609 16ZM16.8164 4.29099V8.65623H18.7891C19.6387 8.65623 20.293 8.46091 20.7617 8.07029C21.2207 7.67966 21.4551 7.14255 21.4551 6.46873C21.4551 5.80466 21.2305 5.26755 20.7812 4.87693C20.332 4.4863 19.707 4.29099 18.9062 4.29099H16.8164Z" fill="#0B0B0B"/>
<path d="M27.1973 16V1.79099H30.0293V16H27.1973Z" fill="#0B0B0B"/>
<path d="M37.5098 16.166C36.5625 16.166 35.6445 15.9804 34.7559 15.6094C33.8672 15.2383 33.0566 14.6816 32.334 13.9297L34.0234 11.8496C34.2773 12.1523 34.5605 12.416 34.8633 12.6406C35.166 12.875 35.4688 13.0605 35.7715 13.1972C36.0742 13.3437 36.377 13.4511 36.6797 13.5195C36.9727 13.5976 37.2656 13.6269 37.5586 13.6269C37.998 13.6269 38.3691 13.5683 38.6816 13.4316C38.9941 13.3047 39.2188 13.1289 39.375 12.9043C39.5215 12.6894 39.5996 12.4258 39.5996 12.123C39.5996 11.9179 39.5605 11.7324 39.502 11.5664C39.4336 11.4101 39.3457 11.2636 39.2285 11.1367C39.1113 11.0195 38.9453 10.8926 38.7305 10.7754C38.5156 10.6582 38.291 10.5508 38.0566 10.4531C37.8223 10.3554 37.5098 10.248 37.1289 10.1113C36.7773 9.99412 36.4746 9.87693 36.2109 9.76951C35.9375 9.67185 35.6543 9.53513 35.3418 9.37888C35.0293 9.22263 34.7559 9.05662 34.5312 8.90037C34.2969 8.74412 34.0723 8.5488 33.8477 8.3242C33.623 8.09959 33.4375 7.86521 33.3008 7.6113C33.1641 7.3574 33.0469 7.0742 32.959 6.74216C32.8711 6.41013 32.832 6.05857 32.832 5.68748C32.832 4.94529 33.0273 4.2617 33.4375 3.6367C33.8379 3.02146 34.3848 2.53318 35.0879 2.18162C35.7812 1.83005 36.5527 1.64451 37.3926 1.62498C39.1113 1.60545 40.7031 2.20115 42.1777 3.41209L40.5566 5.53123C39.4141 4.60349 38.3789 4.13474 37.4609 4.13474C36.9531 4.13474 36.543 4.2617 36.2305 4.5156C35.918 4.76951 35.752 5.12107 35.752 5.56052C35.752 5.7363 35.7812 5.90232 35.8496 6.03904C35.9082 6.18552 35.9961 6.31248 36.1133 6.42966C36.2207 6.54685 36.3867 6.66404 36.6016 6.78123C36.8164 6.89841 37.041 7.00584 37.2559 7.10349C37.4707 7.20115 37.7734 7.31834 38.1445 7.45505C39.3262 7.9238 40.1074 8.25584 40.498 8.46091C41.377 8.9492 41.9727 9.5449 42.2656 10.248C42.4414 10.6972 42.5391 11.2051 42.5391 11.791C42.5391 12.3965 42.4316 12.9433 42.2363 13.4414C42.0312 13.9394 41.7676 14.3496 41.4355 14.6816C41.1035 15.0136 40.7129 15.2871 40.2734 15.5215C39.834 15.7558 39.3848 15.9219 38.9258 16.0195C38.457 16.1172 37.9883 16.166 37.5098 16.166Z" fill="#0B0B0B"/>
<path d="M56.4941 1.79099H59.3262V16H56.5332V7.17185H56.5039L53.0371 13.3047H51.2109L47.7441 7.17185H47.7148V16H44.9219V1.79099H47.7539L52.1191 9.87693H52.1582L56.4941 1.79099Z" fill="#0B0B0B"/>
<path d="M67.9785 16V1.79099H69.7168V14.3984H76.748V16H67.9785Z" fill="#0B0B0B"/>
<path d="M87.4707 10.9804C87.4707 11.2344 87.4512 11.4492 87.4219 11.6445H79.9414C80.0391 12.5527 80.3906 13.2754 80.9863 13.8222C81.5723 14.3691 82.3047 14.6328 83.1836 14.6328C83.7598 14.6328 84.2773 14.5156 84.7461 14.2812C85.2051 14.0469 85.5957 13.7246 85.9277 13.3242L87.0605 14.291C86.6211 14.8574 86.0645 15.3066 85.4004 15.6386C84.7363 15.9707 83.9746 16.1269 83.125 16.1269C82.4414 16.1269 81.7969 16.0097 81.2012 15.7656C80.6055 15.5215 80.0977 15.1797 79.668 14.75C79.2383 14.3203 78.8965 13.7929 78.6523 13.1679C78.3984 12.5429 78.2812 11.8691 78.2812 11.1367C78.2812 10.414 78.3984 9.74998 78.6426 9.12498C78.877 8.49998 79.209 7.97263 79.6191 7.54295C80.0293 7.11326 80.5273 6.77146 81.1035 6.51755C81.6699 6.27341 82.2852 6.14646 82.9395 6.14646C83.8281 6.14646 84.6191 6.3613 85.3125 6.77146C85.9961 7.19138 86.5332 7.76755 86.9043 8.49998C87.2754 9.2324 87.4707 10.0625 87.4707 10.9804ZM83.0273 7.6406C82.2559 7.6406 81.5918 7.88474 81.0352 8.36326C80.4785 8.84177 80.127 9.48631 79.9805 10.2969H85.8594C85.7227 9.49607 85.4102 8.85154 84.9121 8.36326C84.4141 7.88474 83.7891 7.6406 83.0273 7.6406Z" fill="#0B0B0B"/>
<path d="M95.1074 6.14646C96.1914 6.14646 97.041 6.48826 97.666 7.17185C98.291 7.85545 98.6035 8.88084 98.6035 10.2285V16.0097H96.9824V10.6777C96.9824 10.1211 96.9238 9.64256 96.8066 9.24216C96.6895 8.85154 96.5332 8.52927 96.3184 8.2949C96.1035 8.06052 95.8496 7.89451 95.5762 7.78709C95.293 7.68943 94.9707 7.63084 94.5996 7.63084C93.6719 7.63084 92.9297 7.9531 92.373 8.5781C91.8164 9.2031 91.543 10.0625 91.543 11.1367V16H89.9219V6.26365H91.543V7.94334H91.5723C91.9727 7.36716 92.4805 6.92771 93.0957 6.61521C93.7012 6.30271 94.375 6.14646 95.1074 6.14646Z" fill="#0B0B0B"/>
<path d="M104.492 16.1269C102.998 16.1269 101.729 15.6582 100.674 14.7207L101.514 13.4902C101.924 13.8808 102.354 14.164 102.822 14.3594C103.291 14.5547 103.848 14.6523 104.492 14.6523C105.059 14.6523 105.508 14.5351 105.84 14.2812C106.172 14.0371 106.338 13.7246 106.338 13.3535C106.338 13.2558 106.328 13.1679 106.309 13.0801C106.289 13.0019 106.25 12.9238 106.191 12.8457C106.133 12.7676 106.074 12.709 106.025 12.6504C105.967 12.5918 105.889 12.5332 105.771 12.4648C105.654 12.4062 105.557 12.3476 105.479 12.3086C105.4 12.2695 105.273 12.2109 105.117 12.1523C104.951 12.0937 104.814 12.0449 104.717 12.0058C104.619 11.9668 104.463 11.9082 104.258 11.8301C104.15 11.8008 104.072 11.7715 104.023 11.7519C103.652 11.6347 103.35 11.5176 103.096 11.4004C102.842 11.2929 102.588 11.1562 102.314 10.9804C102.041 10.8047 101.816 10.6191 101.66 10.4238C101.494 10.2285 101.357 9.99412 101.25 9.70115C101.143 9.41795 101.094 9.10545 101.094 8.75388C101.094 8.0117 101.396 7.39646 102.012 6.89841C102.617 6.40037 103.389 6.14646 104.316 6.14646C105.566 6.14646 106.689 6.54685 107.666 7.34763L106.826 8.62693C106.045 7.9531 105.176 7.6113 104.238 7.6113C103.848 7.6113 103.496 7.71873 103.193 7.93357C102.891 8.14841 102.744 8.42185 102.744 8.75388C102.744 8.93943 102.783 9.10545 102.871 9.25193C102.959 9.40818 103.096 9.5449 103.281 9.66209C103.467 9.78904 103.652 9.89646 103.848 9.98435C104.033 10.0722 104.277 10.1699 104.59 10.2871C105.625 10.6972 106.26 10.9511 106.475 11.0488C107.139 11.3808 107.578 11.791 107.793 12.2695C107.92 12.5722 107.988 12.9238 107.988 13.334C107.988 13.7246 107.91 14.0859 107.764 14.4179C107.617 14.75 107.402 15.0527 107.119 15.3066C106.836 15.5605 106.465 15.7656 106.016 15.9121C105.566 16.0586 105.059 16.1269 104.492 16.1269Z" fill="#0B0B0B"/>
</svg>
