<svg width="129" height="20" viewBox="0 0 129 20" fill="none" xmlns="http://www.w3.org/2000/svg">
<path d="M124.086 15.0801C122.844 15.0801 121.789 14.6973 120.922 13.9316L121.938 12.4863C122.586 13.0957 123.305 13.4004 124.102 13.4004C124.398 13.4004 124.633 13.3457 124.805 13.2207C124.977 13.1035 125.062 12.9473 125.062 12.752C125.062 12.6348 125.008 12.5332 124.906 12.4395C124.797 12.3457 124.656 12.2598 124.469 12.1816C124.281 12.1035 124.008 12.0098 123.641 11.8848C123.406 11.8066 123.195 11.7285 123.008 11.6504C122.82 11.5723 122.633 11.4863 122.445 11.377C122.25 11.2676 122.086 11.1504 121.945 11.0176C121.805 10.8926 121.68 10.7441 121.57 10.5801C121.461 10.4238 121.375 10.2363 121.32 10.0254C121.258 9.82227 121.234 9.5957 121.234 9.3457C121.234 8.88477 121.352 8.47852 121.602 8.11914C121.852 7.75977 122.188 7.48633 122.609 7.29102C123.031 7.10352 123.516 7.00195 124.047 7.00195C124.594 7.00195 125.094 7.08008 125.555 7.23633C126.008 7.39258 126.461 7.64258 126.906 7.98633L125.891 9.51758C125.594 9.24414 125.289 9.04102 124.961 8.90039C124.633 8.75977 124.32 8.68945 124.023 8.68945C123.82 8.68945 123.648 8.74414 123.492 8.8457C123.336 8.94727 123.258 9.08789 123.258 9.27539C123.258 9.43164 123.344 9.57227 123.531 9.69727C123.719 9.82227 124.016 9.96289 124.43 10.1191C125.289 10.4395 125.867 10.6895 126.164 10.877C126.664 11.1895 126.969 11.6113 127.07 12.127C127.102 12.2832 127.117 12.4629 127.117 12.6504C127.117 13.377 126.852 13.9629 126.336 14.4082C125.82 14.8613 125.07 15.0801 124.086 15.0801Z" fill="white"/>
<path d="M117.414 7.13477H119.508V14.9473H117.414V13.9941H117.383C117.078 14.3535 116.727 14.6191 116.328 14.8066C115.93 14.9941 115.508 15.0801 115.062 15.0801C114.625 15.0801 114.234 15.0254 113.898 14.9082C113.555 14.791 113.258 14.6035 112.992 14.3535C112.727 14.1035 112.531 13.7676 112.391 13.3457C112.25 12.9238 112.188 12.4238 112.188 11.8379V7.13477H114.281V11.291C114.281 11.9941 114.383 12.4941 114.602 12.7754C114.82 13.0566 115.18 13.1973 115.68 13.1973C116.164 13.1973 116.578 13.002 116.914 12.6035C117.242 12.2129 117.414 11.6504 117.414 10.9238V7.13477Z" fill="white"/>
<path d="M108.016 14.9473V3.16602H110.109V14.9473H108.016Z" fill="white"/>
<path d="M98.125 14.9473V3.58008H102.328C103 3.58008 103.586 3.67383 104.102 3.86133C104.617 4.04883 105.031 4.31445 105.344 4.6582C105.656 5.00195 105.891 5.40039 106.047 5.85352C106.203 6.30664 106.281 6.81445 106.281 7.36914C106.281 7.98633 106.18 8.52539 105.984 8.99414C105.781 9.46289 105.5 9.85352 105.133 10.1504C104.766 10.4551 104.328 10.6816 103.82 10.8301C103.312 10.9863 102.742 11.0566 102.117 11.0566H100.344V14.9473H98.125ZM100.344 9.06445H101.836C102.523 9.06445 103.047 8.9082 103.406 8.5957C103.766 8.2832 103.953 7.86133 103.953 7.32227C103.953 6.79102 103.773 6.36133 103.422 6.04883C103.07 5.73633 102.57 5.58008 101.93 5.58008H100.344V9.06445Z" fill="white"/>
<path d="M87.8672 15.0801C87.375 15.0801 86.9141 15.0176 86.4844 14.8848C86.0469 14.7598 85.6641 14.5723 85.3281 14.3301C84.9922 14.0957 84.7031 13.8066 84.4609 13.4785C84.2109 13.1504 84.0234 12.7754 83.8984 12.3613C83.7734 11.9551 83.7109 11.5176 83.7109 11.0488C83.7109 10.4707 83.8047 9.93164 84.0078 9.43164C84.2109 8.93164 84.4922 8.50977 84.8516 8.15039C85.2109 7.79102 85.6484 7.50977 86.1719 7.30664C86.6875 7.10352 87.2578 7.00195 87.8672 7.00195C88.4609 7.00195 89.0234 7.10352 89.5391 7.29883C90.0547 7.50195 90.4922 7.77539 90.8594 8.12695C91.2188 8.47852 91.5078 8.9082 91.7109 9.4082C91.9141 9.9082 92.0234 10.4551 92.0234 11.0488C92.0234 11.8379 91.8438 12.541 91.4922 13.1504C91.1328 13.7676 90.6406 14.2441 90.0156 14.5801C89.3828 14.916 88.6641 15.0801 87.8672 15.0801ZM87.8672 13.2051C88.4375 13.2051 88.9219 13.002 89.3125 12.5957C89.7031 12.1895 89.8984 11.6738 89.8984 11.0488C89.8984 10.416 89.7031 9.90039 89.3203 9.49414C88.9297 9.08789 88.4453 8.88477 87.8672 8.88477C87.2578 8.88477 86.7656 9.0957 86.3906 9.50195C86.0156 9.9082 85.8281 10.4238 85.8281 11.0488C85.8281 11.6582 86.0156 12.1738 86.3984 12.5879C86.7812 13.002 87.2734 13.2051 87.8672 13.2051Z" fill="white"/>
<path d="M80.9922 15.0801C80.2969 15.0801 79.75 14.8613 79.3516 14.4238C78.9531 13.9863 78.7578 13.3379 78.7578 12.4785V8.86914H77.8359V7.13477H78.7578V4.58008L80.8516 4.35352V7.13477H82.9766V8.86914H80.8516V12.1895C80.8516 12.5332 80.8984 12.791 81.0078 12.9473C81.1172 13.1113 81.2891 13.1895 81.5391 13.1895C81.8359 13.1895 82.1641 13.1035 82.5234 12.916L83.0625 14.5879C82.7656 14.752 82.4609 14.877 82.1641 14.9551C81.8594 15.041 81.4688 15.0801 80.9922 15.0801Z" fill="white"/>
<path d="M72.6719 10.9707C72.6719 11.3457 72.6484 11.5957 72.6172 11.7207H67.1406C67.2656 12.1895 67.5 12.5488 67.8516 12.8145C68.2031 13.0801 68.6328 13.2207 69.1328 13.2207C69.8828 13.2285 70.5078 12.9316 71 12.3379L72.3594 13.6035C72 14.0566 71.5391 14.416 70.9688 14.6816C70.3906 14.9473 69.7344 15.0801 68.9844 15.0801C68.2188 15.0801 67.5391 14.916 66.9297 14.5879C66.3203 14.2598 65.8359 13.7832 65.4844 13.1582C65.1328 12.541 64.9609 11.8301 64.9609 11.0332C64.9609 10.4551 65.0547 9.9082 65.2578 9.4082C65.4531 8.9082 65.7188 8.47852 66.0625 8.12695C66.4062 7.77539 66.8125 7.50195 67.2969 7.29883C67.7734 7.10352 68.2891 7.00195 68.8359 7.00195C69.5859 7.00195 70.2578 7.17383 70.8438 7.51758C71.4219 7.86133 71.875 8.33008 72.1953 8.93164C72.5078 9.5332 72.6719 10.2129 72.6719 10.9707ZM68.9062 8.8457C68.4688 8.8457 68.1016 8.96289 67.7891 9.19727C67.4766 9.43164 67.2656 9.77539 67.1484 10.2129H70.5938C70.4844 9.79102 70.2812 9.45508 70 9.21289C69.7109 8.9707 69.3438 8.8457 68.9062 8.8457Z" fill="white"/>
<path d="M60.0078 7.00195C60.5234 7.00195 61.0078 7.10352 61.4609 7.30664C61.9141 7.50977 62.3047 7.79102 62.6328 8.14258C62.9609 8.50195 63.2188 8.93164 63.4062 9.43164C63.5938 9.93945 63.6875 10.4863 63.6875 11.0645C63.6875 11.6582 63.5938 12.2129 63.4062 12.7129C63.2188 13.2129 62.9531 13.6426 62.625 13.9863C62.2969 14.3301 61.8984 14.6035 61.4375 14.791C60.9766 14.9863 60.4766 15.0801 59.9453 15.0801C58.9141 15.0801 58.1172 14.7207 57.5547 14.002H57.5156V14.9473H55.5156V3.16602H57.6094V8.01758H57.6484C58.2344 7.3457 59.0234 7.00195 60.0078 7.00195ZM59.5625 13.2051C60.1484 13.2051 60.625 13.0098 61 12.6113C61.375 12.2207 61.5625 11.7051 61.5625 11.0723C61.5625 10.416 61.3672 9.89258 60.9922 9.48633C60.6094 9.08789 60.1328 8.88477 59.5625 8.88477C58.9609 8.88477 58.4688 9.0957 58.0859 9.50977C57.6953 9.92383 57.5078 10.4473 57.5078 11.0723C57.5078 11.7051 57.7031 12.2207 58.0938 12.6113C58.4844 13.0098 58.9766 13.2051 59.5625 13.2051Z" fill="white"/>
<path d="M52.25 6.0332C52.0156 6.0332 51.7969 5.97852 51.5938 5.86133C51.3906 5.75195 51.2344 5.5957 51.125 5.40039C51.0078 5.20508 50.9531 4.98633 50.9531 4.75195C50.9531 4.4082 51.0781 4.10352 51.3281 3.85352C51.5781 3.60352 51.8906 3.47852 52.25 3.47852C52.6016 3.47852 52.9062 3.60352 53.1641 3.85352C53.4141 4.10352 53.5469 4.4082 53.5469 4.75195C53.5469 5.11133 53.4141 5.4082 53.1641 5.6582C52.9062 5.9082 52.6016 6.0332 52.25 6.0332ZM51.2031 14.9473V7.13477H53.2969V14.9473H51.2031Z" fill="white"/>
<path d="M49.5859 7.00195C49.6641 7.00195 49.7188 7.00977 49.75 7.00977V9.30664C49.5391 9.29102 49.3516 9.2832 49.1953 9.2832C48.5703 9.2832 48.0781 9.47852 47.7266 9.85352C47.375 10.2363 47.2031 10.7285 47.2031 11.3223V14.9473H45.1094V7.13477H47.2031V8.2832H47.2266C47.5234 7.87695 47.875 7.55664 48.2812 7.33789C48.6875 7.11914 49.1172 7.00195 49.5859 7.00195Z" fill="white"/>
<path d="M40.1953 15.0801C39.4297 15.0801 38.7422 14.916 38.1328 14.5801C37.5234 14.2441 37.0391 13.7676 36.6953 13.1504C36.3516 12.541 36.1797 11.8379 36.1797 11.0488C36.1797 10.2598 36.3516 9.55664 36.7031 8.93945C37.0469 8.33008 37.5391 7.85352 38.1641 7.50977C38.7891 7.17383 39.5 7.00195 40.2969 7.00195C40.9375 7.00195 41.5547 7.13477 42.1484 7.39258C42.7422 7.65039 43.2266 8.01758 43.6172 8.50195L42.2031 9.7207C41.7188 9.16602 41.1172 8.88477 40.3828 8.88477C40.0703 8.88477 39.7891 8.93945 39.5312 9.04883C39.2656 9.1582 39.0469 9.29883 38.8672 9.48633C38.6875 9.67383 38.5469 9.90039 38.4531 10.166C38.3516 10.4316 38.3047 10.7207 38.3047 11.0332C38.3047 11.6738 38.4922 12.1973 38.8828 12.5957C39.2734 13.002 39.7734 13.1973 40.3984 13.1973C40.7812 13.1973 41.125 13.127 41.4375 12.9785C41.75 12.8301 42.0078 12.6426 42.2109 12.4082L43.6484 13.6738C43.2891 14.0957 42.8047 14.4316 42.2109 14.6895C41.6172 14.9551 40.9453 15.0801 40.1953 15.0801Z" fill="white"/>
<path d="M32.0391 15.0801C30.7969 15.0801 29.7422 14.6973 28.875 13.9316L29.8906 12.4863C30.5391 13.0957 31.2578 13.4004 32.0547 13.4004C32.3516 13.4004 32.5859 13.3457 32.7578 13.2207C32.9297 13.1035 33.0156 12.9473 33.0156 12.752C33.0156 12.6348 32.9609 12.5332 32.8594 12.4395C32.75 12.3457 32.6094 12.2598 32.4219 12.1816C32.2344 12.1035 31.9609 12.0098 31.5938 11.8848C31.3594 11.8066 31.1484 11.7285 30.9609 11.6504C30.7734 11.5723 30.5859 11.4863 30.3984 11.377C30.2031 11.2676 30.0391 11.1504 29.8984 11.0176C29.7578 10.8926 29.6328 10.7441 29.5234 10.5801C29.4141 10.4238 29.3281 10.2363 29.2734 10.0254C29.2109 9.82227 29.1875 9.5957 29.1875 9.3457C29.1875 8.88477 29.3047 8.47852 29.5547 8.11914C29.8047 7.75977 30.1406 7.48633 30.5625 7.29102C30.9844 7.10352 31.4688 7.00195 32 7.00195C32.5469 7.00195 33.0469 7.08008 33.5078 7.23633C33.9609 7.39258 34.4141 7.64258 34.8594 7.98633L33.8438 9.51758C33.5469 9.24414 33.2422 9.04102 32.9141 8.90039C32.5859 8.75977 32.2734 8.68945 31.9766 8.68945C31.7734 8.68945 31.6016 8.74414 31.4453 8.8457C31.2891 8.94727 31.2109 9.08789 31.2109 9.27539C31.2109 9.43164 31.2969 9.57227 31.4844 9.69727C31.6719 9.82227 31.9688 9.96289 32.3828 10.1191C33.2422 10.4395 33.8203 10.6895 34.1172 10.877C34.6172 11.1895 34.9219 11.6113 35.0234 12.127C35.0547 12.2832 35.0703 12.4629 35.0703 12.6504C35.0703 13.377 34.8047 13.9629 34.2891 14.4082C33.7734 14.8613 33.0234 15.0801 32.0391 15.0801Z" fill="white"/>
<path d="M24.1328 7.00195C24.6484 7.00195 25.1328 7.10352 25.5859 7.30664C26.0391 7.50977 26.4297 7.79102 26.7578 8.14258C27.0859 8.50195 27.3438 8.93164 27.5312 9.43164C27.7188 9.93945 27.8125 10.4863 27.8125 11.0645C27.8125 11.6582 27.7188 12.2129 27.5312 12.7129C27.3438 13.2129 27.0781 13.6426 26.75 13.9863C26.4219 14.3301 26.0234 14.6035 25.5625 14.791C25.1016 14.9863 24.6016 15.0801 24.0703 15.0801C23.0391 15.0801 22.2422 14.7207 21.6797 14.002H21.6406V14.9473H19.6406V3.16602H21.7344V8.01758H21.7734C22.3594 7.3457 23.1484 7.00195 24.1328 7.00195ZM23.6875 13.2051C24.2734 13.2051 24.75 13.0098 25.125 12.6113C25.5 12.2207 25.6875 11.7051 25.6875 11.0723C25.6875 10.416 25.4922 9.89258 25.1172 9.48633C24.7344 9.08789 24.2578 8.88477 23.6875 8.88477C23.0859 8.88477 22.5938 9.0957 22.2109 9.50977C21.8203 9.92383 21.6328 10.4473 21.6328 11.0723C21.6328 11.7051 21.8281 12.2207 22.2188 12.6113C22.6094 13.0098 23.1016 13.2051 23.6875 13.2051Z" fill="white"/>
<path d="M15.4922 7.13477H17.5859V14.9473H15.4922V13.9941H15.4609C15.1562 14.3535 14.8047 14.6191 14.4062 14.8066C14.0078 14.9941 13.5859 15.0801 13.1406 15.0801C12.7031 15.0801 12.3125 15.0254 11.9766 14.9082C11.6328 14.791 11.3359 14.6035 11.0703 14.3535C10.8047 14.1035 10.6094 13.7676 10.4688 13.3457C10.3281 12.9238 10.2656 12.4238 10.2656 11.8379V7.13477H12.3594V11.291C12.3594 11.9941 12.4609 12.4941 12.6797 12.7754C12.8984 13.0566 13.2578 13.1973 13.7578 13.1973C14.2422 13.1973 14.6562 13.002 14.9922 12.6035C15.3203 12.2129 15.4922 11.6504 15.4922 10.9238V7.13477Z" fill="white"/>
<path d="M4.66406 15.08C3.90625 15.08 3.17188 14.9315 2.46094 14.6346C1.75 14.3378 1.10156 13.8925 0.523438 13.2909L1.875 11.6268C2.07812 11.869 2.30469 12.08 2.54688 12.2596C2.78906 12.4471 3.03125 12.5956 3.27344 12.705C3.51562 12.8221 3.75781 12.9081 4 12.9628C4.23438 13.0253 4.46875 13.0487 4.70312 13.0487C5.05469 13.0487 5.35156 13.0018 5.60156 12.8925C5.85156 12.7909 6.03125 12.6503 6.15625 12.4706C6.27344 12.2987 6.33594 12.0878 6.33594 11.8456C6.33594 11.6815 6.30469 11.5331 6.25781 11.4003C6.20312 11.2753 6.13281 11.1581 6.03906 11.0565C5.94531 10.9628 5.8125 10.8612 5.64062 10.7675C5.46875 10.6737 5.28906 10.5878 5.10156 10.5096C4.91406 10.4315 4.66406 10.3456 4.35938 10.2362C4.07812 10.1425 3.83594 10.0487 3.625 9.96277C3.40625 9.88465 3.17969 9.77527 2.92969 9.65027C2.67969 9.52527 2.46094 9.39246 2.28125 9.26746C2.09375 9.14246 1.91406 8.98621 1.73438 8.80652C1.55469 8.62684 1.40625 8.43934 1.29688 8.23621C1.1875 8.03309 1.09375 7.80652 1.02344 7.5409C0.953125 7.27527 0.921875 6.99402 0.921875 6.69715C0.921875 6.1034 1.07812 5.55652 1.40625 5.05652C1.72656 4.56434 2.16406 4.17371 2.72656 3.89246C3.28125 3.61121 3.89844 3.46277 4.57031 3.44715C5.94531 3.43152 7.21875 3.90809 8.39844 4.87684L7.10156 6.57215C6.1875 5.82996 5.35938 5.45496 4.625 5.45496C4.21875 5.45496 3.89062 5.55652 3.64062 5.75965C3.39062 5.96277 3.25781 6.24402 3.25781 6.59559C3.25781 6.73621 3.28125 6.86902 3.33594 6.9784C3.38281 7.09559 3.45312 7.19715 3.54688 7.2909C3.63281 7.38465 3.76562 7.4784 3.9375 7.57215C4.10938 7.6659 4.28906 7.75184 4.46094 7.82996C4.63281 7.90809 4.875 8.00184 5.17188 8.11121C6.11719 8.48621 6.74219 8.75184 7.05469 8.9159C7.75781 9.30652 8.23438 9.78309 8.46875 10.3456C8.60938 10.705 8.6875 11.1112 8.6875 11.58C8.6875 12.0643 8.60156 12.5018 8.44531 12.9003C8.28125 13.2987 8.07031 13.6268 7.80469 13.8925C7.53906 14.1581 7.22656 14.3768 6.875 14.5643C6.52344 14.7518 6.16406 14.8846 5.79688 14.9628C5.42188 15.0409 5.04688 15.08 4.66406 15.08Z" fill="white"/>
</svg>
